<svg width="20" height="18" viewBox="0 0 20 18" fill="none" xmlns="http://www.w3.org/2000/svg">
<path d="M6.79214 14.1428L3.32258 1H1M7.21841 14.197H15.9751M16.9677 10.8977L19 3.19944H3.90323L5.93548 10.8977H16.9677ZM5.29789 15.5714C5.29789 15.061 5.58542 14.5894 6.05217 14.3342C6.51892 14.079 7.09398 14.079 7.56073 14.3342C8.02748 14.5894 8.31501 15.061 8.31501 15.5714C8.31501 16.0818 8.02748 16.5534 7.56073 16.8086C7.09398 17.0638 6.51892 17.0638 6.05217 16.8086C5.58542 16.5534 5.29789 16.0818 5.29789 15.5714ZM14.8785 15.5714C14.8785 15.061 15.1661 14.5894 15.6328 14.3342C16.0996 14.079 16.6746 14.079 17.1414 14.3342C17.6081 14.5894 17.8957 15.061 17.8957 15.5714C17.8957 16.0818 17.6081 16.5534 17.1414 16.8086C16.6746 17.0638 16.0996 17.0638 15.6328 16.8086C15.1661 16.5534 14.8785 16.0818 14.8785 15.5714Z" stroke="#0D0D0D" stroke-linecap="round" stroke-linejoin="round"/>
</svg>
