<svg width="34" height="34" viewBox="0 0 34 34" fill="none" xmlns="http://www.w3.org/2000/svg">
<path d="M21.2 33H2.80001C1.80589 33 1 32.1941 1 31.2C1 28.226 2.85447 25.5676 5.64546 24.5406L6.35271 24.2803C9.99808 22.9389 14.0019 22.9389 17.6473 24.2803L18.3545 24.5406C21.1455 25.5676 23 28.226 23 31.2C23 32.1941 22.1941 33 21.2 33Z" stroke="#FAFAFA" stroke-linecap="square" stroke-linejoin="round"/>
<path d="M9.23575 19.0059C10.9743 19.8827 13.0257 19.8827 14.7643 19.0059C16.4159 18.1729 17.6038 16.6395 17.9978 14.8321L18.0718 14.4922C18.472 12.6558 18.0466 10.7363 16.908 9.24105L16.7901 9.08625C15.6514 7.59084 13.8796 6.71302 12 6.71302C10.1204 6.71302 8.34862 7.59084 7.2099 9.08625L7.09202 9.24105C5.95338 10.7363 5.52795 12.6559 5.92817 14.4922L6.00225 14.8321C6.39615 16.6395 7.5841 18.1729 9.23575 19.0059Z" stroke="#FAFAFA" stroke-linecap="square" stroke-linejoin="round"/>
<path d="M23 1C21.8954 1 21 1.89543 21 3V8.42857C21 9.53314 21.8954 10.4286 23 10.4286H23.5714V13L27 10.4286H31C32.1046 10.4286 33 9.53314 33 8.42857V3C33 1.89543 32.1046 1 31 1H23Z" stroke="#FAFAFA" stroke-linecap="square" stroke-linejoin="round"/>
</svg>
