<svg width="34" height="34" viewBox="0 0 34 34" fill="none" xmlns="http://www.w3.org/2000/svg">
<path d="M22.4746 10.6608L10.0961 23.0393M28.3137 5.68629C26.6428 4.01536 24.158 3.65407 22.1351 4.60268C21.3755 2.50153 19.3631 1 17 1C14.6369 1 12.6245 2.50153 11.8649 4.60268C9.84199 3.65407 7.35723 4.01536 5.68629 5.68629C4.01536 7.35723 3.65407 9.842 4.60267 11.8649C2.50153 12.6245 1 14.6369 1 17C1 19.3631 2.50153 21.3755 4.60267 22.1351C3.65407 24.158 4.01536 26.6428 5.68629 28.3137C7.35723 29.9846 9.842 30.3459 11.8649 29.3973C12.6245 31.4985 14.6369 33 17 33C19.3631 33 21.3755 31.4985 22.1351 29.3973C24.158 30.3459 26.6428 29.9846 28.3137 28.3137C29.9846 26.6428 30.3459 24.158 29.3973 22.1351C31.4985 21.3755 33 19.3631 33 17C33 14.6369 31.4985 12.6245 29.3973 11.8649C30.3459 9.842 29.9846 7.35723 28.3137 5.68629ZM13.894 14.4587C13.1172 15.2356 11.8576 15.2356 11.0807 14.4587C10.3039 13.6819 10.3039 12.4223 11.0807 11.6454C11.8576 10.8686 13.1172 10.8686 13.894 11.6454C14.6709 12.4223 14.6709 13.6819 13.894 14.4587ZM21.7713 22.336C20.9944 23.1128 19.7348 23.1128 18.958 22.336C18.1811 21.5591 18.1811 20.2995 18.958 19.5227C19.7348 18.7458 20.9944 18.7458 21.7713 19.5227C22.5481 20.2995 22.5481 21.5591 21.7713 22.336Z" stroke="#FAFAFA" stroke-linecap="round" stroke-linejoin="round"/>
</svg>
