<svg width="40" height="40" viewBox="0 0 40 40" fill="none" xmlns="http://www.w3.org/2000/svg">
<rect x="0.5" y="0.5" width="39" height="39" fill="#0D0D0D" stroke="#FAFAFA"/>
<path d="M28 14.6528C28 13.2435 26.7565 12 25.3472 12H14.6528C13.2435 12 12 13.2435 12 14.6528V25.3471C12 26.7565 13.2435 28 14.6528 28H20.0414V21.9482H18.0518V19.2953H20.0414V18.2176C20.0414 16.3938 21.3679 14.8186 23.0259 14.8186H25.1814V17.4715H23.0259C22.7772 17.4715 22.5285 17.7202 22.5285 18.2176V19.2953H25.1814V21.9482H22.5285V28H25.3472C26.7565 28 28 26.7565 28 25.3471V14.6528Z" fill="#FAFAFA"/>
</svg>
