<svg width="18" height="18" viewBox="0 0 18 18" fill="none" xmlns="http://www.w3.org/2000/svg">
<path d="M1.43321 11.5971H16.5662M1.53855 6.11331H16.4609M1.60896 5.93823C2.42092 3.97812 3.97831 2.42083 5.93853 1.60893C7.89876 0.797025 10.1012 0.797025 12.0615 1.60893C14.0217 2.42083 15.5791 3.97812 16.391 5.93823C17.203 7.89833 17.203 10.1007 16.391 12.0608C15.5791 14.0209 14.0217 15.5782 12.0615 16.3901C10.1012 17.202 7.89876 17.202 5.93853 16.3901C3.97831 15.5782 2.42092 14.0209 1.60896 12.0608C0.797012 10.1007 0.797012 7.89833 1.60896 5.93823ZM11.7583 13.4902C12.9491 10.6154 12.9491 7.38528 11.7583 4.51046C11.2195 3.20975 10.4569 2.02999 9.51699 1.0177C9.17241 0.995397 8.82673 0.995415 8.48216 1.01776C7.54263 2.02986 6.78029 3.20933 6.24163 4.50968C5.05077 7.3845 5.05077 10.6146 6.24164 13.4894C6.78064 14.7906 7.54363 15.9708 8.48401 16.9834C8.82786 17.0056 9.17282 17.0055 9.51667 16.9833C10.4567 15.9709 11.2194 14.7911 11.7583 13.4902Z" stroke="#0D0D0D" stroke-linejoin="round"/>
</svg>
