<svg width="40" height="40" viewBox="0 0 40 40" fill="none" xmlns="http://www.w3.org/2000/svg">
<rect x="0.5" y="0.5" width="39" height="39" fill="#0D0D0D" stroke="#FAFAFA"/>
<path d="M25.7231 12H14.2769C12.9846 12 12 12.9846 12 14.2769V25.7231C12 27.0154 12.9846 28 14.2769 28H25.7231C27.0154 28 28 27.0154 28 25.7231V14.2769C28 12.9846 27.0154 12 25.7231 12ZM20 24.8C22.6462 24.8 24.8 22.7077 24.8 20.1846C24.8 19.7538 24.7385 19.2615 24.6154 18.8923H25.9692V25.4154C25.9692 25.7231 25.7231 26.0308 25.3538 26.0308H14.6462C14.3385 26.0308 14.0308 25.7846 14.0308 25.4154V18.8308H15.4462C15.3231 19.2615 15.2615 19.6923 15.2615 20.1231C15.2 22.7077 17.3538 24.8 20 24.8ZM20 22.9538C18.2769 22.9538 16.9231 21.6 16.9231 19.9385C16.9231 18.2769 18.2769 16.9231 20 16.9231C21.7231 16.9231 23.0769 18.2769 23.0769 19.9385C23.0769 21.6615 21.7231 22.9538 20 22.9538ZM25.9077 16.3692C25.9077 16.7385 25.6 17.0462 25.2308 17.0462H23.5077C23.1385 17.0462 22.8308 16.7385 22.8308 16.3692V14.7077C22.8308 14.3385 23.1385 14.0308 23.5077 14.0308H25.2308C25.6 14.0308 25.9077 14.3385 25.9077 14.7077V16.3692Z" fill="#FAFAFA"/>
</svg>
